<?xml version="1.0" standalone="no"?>
<!DOCTYPE svg PUBLIC "-//W3C//DTD SVG 20010904//EN"
 "http://www.w3.org/TR/2001/REC-SVG-20010904/DTD/svg10.dtd">
<svg version="1.0" xmlns="http://www.w3.org/2000/svg"
 width="900.000000pt" height="900.000000pt" viewBox="0 0 900.000000 900.000000"
 preserveAspectRatio="xMidYMid meet">
<metadata>
Created by potrace 1.11, written by Peter Selinger 2001-2013
</metadata>
<g transform="translate(0.000000,900.000000) scale(0.100000,-0.100000)"
fill="#000000" stroke="none">
<path d="M0 4500 l0 -4500 4500 0 4500 0 0 4500 0 4500 -4500 0 -4500 0 0
-4500z m3645 2350 c-27 -12 -43 -12 -25 0 8 5 22 9 30 9 10 0 8 -3 -5 -9z
m-45 -15 c0 -4 -19 -14 -41 -24 -32 -15 -38 -20 -23 -24 13 -3 9 -5 -11 -7
-27 -1 -28 -2 -10 -11 16 -7 13 -8 -13 -4 -22 3 -31 1 -26 -6 7 -11 -26 -40
-38 -33 -4 3 -5 -3 -1 -12 4 -12 3 -15 -5 -10 -7 4 -22 4 -33 1 -17 -6 -19 -9
-8 -17 10 -7 7 -8 -13 -5 -18 3 -25 0 -22 -8 5 -11 -34 -26 -73 -29 -6 -1 -15
-5 -19 -9 -10 -10 -24 -9 -24 2 0 5 9 13 21 16 11 4 18 9 15 12 -7 8 -58 -26
-75 -49 -7 -11 -20 -17 -28 -14 -8 3 -34 -8 -59 -25 -24 -16 -44 -27 -44 -24
0 7 138 97 218 142 67 37 292 143 304 143 5 0 8 -2 8 -5z m1050 -1746 c111
-24 255 -120 330 -219 45 -59 94 -162 110 -230 18 -76 16 -225 -5 -296 -81
-280 -341 -462 -630 -441 -239 18 -446 181 -527 416 -19 55 -23 86 -23 191 1
114 3 131 29 195 89 218 263 362 480 396 56 8 167 3 236 -12z m-887 -766 c51
-230 221 -431 440 -522 441 -182 931 65 1042 527 l17 72 876 0 875 0 -7 -87
c-46 -604 -301 -1158 -731 -1588 -375 -375 -841 -616 -1366 -706 -117 -20
-168 -23 -404 -24 -302 0 -398 11 -631 70 -435 111 -823 334 -1149 660 -285
284 -489 613 -613 990 -67 201 -122 490 -122 643 l0 42 878 0 877 0 18 -77z"/>
<path d="M3180 6620 c-9 -6 -10 -10 -3 -10 6 0 15 5 18 10 8 12 4 12 -15 0z"/>
</g>
</svg>
